<svg width="150" height="150" viewBox="0 0 150 150" fill="none" xmlns="http://www.w3.org/2000/svg">
<circle cx="75.5" cy="74.5" r="73.5" fill="#FFBD12"/>
<path fill-rule="evenodd" clip-rule="evenodd" d="M37.4443 115.141C47.3726 125.069 59.8784 130.033 74.9617 130.033C84.1263 130.033 92.5272 127.933 100.164 123.733C107.897 119.437 113.959 113.613 118.35 106.263L96.1548 93.3751C94.2455 97.0027 91.3816 99.8666 87.563 101.967C83.8399 103.972 79.6395 104.974 74.9617 104.974C66.9427 104.974 60.4512 102.492 55.487 97.5278C50.6184 92.4682 48.184 85.8811 48.184 77.7667C48.184 69.6522 50.6184 63.1129 55.487 58.1488C60.4512 53.0892 66.9427 50.5594 74.9617 50.5594C79.6395 50.5594 83.8399 51.6095 87.563 53.7097C91.3816 55.7144 94.2455 58.4829 96.1548 62.0151L118.35 49.2706C113.959 42.0153 107.897 36.2397 100.164 31.9438C92.4317 27.6479 84.0309 25.5 74.9617 25.5C59.8784 25.5 47.3726 30.5119 37.4443 40.5356C27.6115 50.4639 22.6951 62.8742 22.6951 77.7667C22.6951 92.6591 27.6115 105.117 37.4443 115.141ZM116.333 89.2C122.648 89.2 127.767 84.0811 127.767 77.7667C127.767 71.4522 122.648 66.3333 116.333 66.3333C110.019 66.3333 104.9 71.4522 104.9 77.7667C104.9 84.0811 110.019 89.2 116.333 89.2Z" fill="#18191F"/>
<path fill-rule="evenodd" clip-rule="evenodd" d="M89.1246 104.836L89.1118 104.843C84.8636 107.13 80.1215 108.241 74.9617 108.241C66.2103 108.241 58.8425 105.503 53.1772 99.8377L53.1549 99.8154L53.1332 99.7928C47.5876 94.0297 44.9174 86.5843 44.9174 77.7667C44.9174 68.9506 47.5875 61.5379 53.1548 55.8614C58.8162 50.0912 66.1915 47.2927 74.9617 47.2927C80.13 47.2927 84.8777 48.4546 89.125 50.8403C92.4096 52.572 95.1267 54.8372 97.2222 57.6353L113.717 48.1639C109.834 42.7097 104.803 38.2576 98.5779 34.7994C91.3432 30.7801 83.4903 28.7667 74.9617 28.7667C60.6834 28.7667 49.0345 33.476 39.7652 42.8344C30.5809 52.1079 25.9617 63.6725 25.9617 77.7667C25.9617 91.8553 30.5778 103.471 39.7651 112.842C49.0305 122.102 60.6792 126.767 74.9617 126.767C83.6025 126.767 91.4554 124.793 98.5833 120.874C104.817 117.41 109.858 112.911 113.746 107.367L97.2488 97.7877C95.1559 100.666 92.4358 103.015 89.1373 104.829L89.1246 104.836ZM95.2904 94.8637C93.4191 97.795 90.8433 100.163 87.563 101.967C83.8399 103.972 79.6395 104.974 74.9617 104.974C66.9427 104.974 60.4512 102.492 55.487 97.5278C50.6184 92.4682 48.184 85.8811 48.184 77.7667C48.184 69.6522 50.6184 63.1129 55.487 58.1488C60.4512 53.0892 66.9427 50.5594 74.9617 50.5594C79.6395 50.5594 83.8399 51.6095 87.563 53.7097C91.0558 55.5434 93.7498 58.016 95.6452 61.1276C95.822 61.4179 95.9919 61.7137 96.1548 62.0151L118.35 49.2706C117.782 48.3323 117.187 47.4188 116.563 46.5301C112.363 40.5463 106.897 35.6842 100.164 31.9438C92.4317 27.6479 84.0309 25.5 74.9617 25.5C59.8784 25.5 47.3726 30.5119 37.4443 40.5356C27.6115 50.4639 22.6951 62.8742 22.6951 77.7667C22.6951 92.6591 27.6115 105.117 37.4443 115.141C47.3726 125.069 59.8784 130.033 74.9617 130.033C84.1263 130.033 92.5272 127.933 100.164 123.733C106.906 119.987 112.378 115.08 116.58 109.012C117.198 108.121 117.788 107.204 118.35 106.263L96.1548 93.3751C95.8856 93.8865 95.5975 94.3827 95.2904 94.8637ZM116.333 85.9333C120.844 85.9333 124.5 82.277 124.5 77.7667C124.5 73.2563 120.844 69.6 116.333 69.6C111.823 69.6 108.167 73.2563 108.167 77.7667C108.167 82.277 111.823 85.9333 116.333 85.9333ZM127.767 77.7667C127.767 84.0811 122.648 89.2 116.333 89.2C110.019 89.2 104.9 84.0811 104.9 77.7667C104.9 71.4522 110.019 66.3333 116.333 66.3333C122.648 66.3333 127.767 71.4522 127.767 77.7667Z" fill="#18191F"/>
<path fill-rule="evenodd" clip-rule="evenodd" d="M37.4443 111.874C47.3726 121.803 59.8784 126.767 74.9617 126.767C84.1263 126.767 92.5272 124.667 100.164 120.466C107.897 116.17 113.959 110.347 118.35 102.996L96.1548 90.1085C94.2455 93.7361 91.3816 96.6 87.563 98.7003C83.8399 100.705 79.6395 101.707 74.9617 101.707C66.9427 101.707 60.4512 99.2253 55.487 94.2612C50.6184 89.2016 48.184 82.6145 48.184 74.5001C48.184 66.3856 50.6184 59.8463 55.487 54.8822C60.4512 49.8226 66.9427 47.2928 74.9617 47.2928C79.6395 47.2928 83.8399 48.3429 87.563 50.4431C91.3816 52.4478 94.2455 55.2163 96.1548 58.7485L118.35 46.004C113.959 38.7487 107.897 32.9731 100.164 28.6772C92.4317 24.3813 84.0309 22.2334 74.9617 22.2334C59.8784 22.2334 47.3726 27.2453 37.4443 37.269C27.6115 47.1973 22.6951 59.6076 22.6951 74.5001C22.6951 89.3925 27.6115 101.851 37.4443 111.874ZM116.333 85.9334C122.648 85.9334 127.767 80.8145 127.767 74.5001C127.767 68.1856 122.648 63.0667 116.333 63.0667C110.019 63.0667 104.9 68.1856 104.9 74.5001C104.9 80.8145 110.019 85.9334 116.333 85.9334Z" fill="white"/>
<path fill-rule="evenodd" clip-rule="evenodd" d="M89.1246 101.57L89.1118 101.576C84.8636 103.864 80.1215 104.974 74.9617 104.974C66.2103 104.974 58.8425 102.236 53.1772 96.571L53.1549 96.5488L53.1332 96.5262C47.5876 90.7631 44.9174 83.3177 44.9174 74.5001C44.9174 65.684 47.5875 58.2713 53.1548 52.5948C58.8162 46.8246 66.1915 44.0261 74.9617 44.0261C80.13 44.0261 84.8777 45.188 89.125 47.5737C92.4096 49.3054 95.1267 51.5706 97.2222 54.3687L113.717 44.8973C109.834 39.4431 104.803 34.991 98.5779 31.5328C91.3432 27.5135 83.4903 25.5001 74.9617 25.5001C60.6834 25.5001 49.0345 30.2094 39.7652 39.5678C30.5809 48.8413 25.9617 60.4059 25.9617 74.5001C25.9617 88.5887 30.5778 100.204 39.7651 109.575C49.0305 118.835 60.6792 123.5 74.9617 123.5C83.6025 123.5 91.4554 121.526 98.5833 117.607C104.817 114.143 109.858 109.645 113.746 104.1L97.2488 94.5211C95.1559 97.3998 92.4358 99.7484 89.1373 101.563L89.1246 101.57ZM95.2904 91.5971C93.4191 94.5284 90.8433 96.8961 87.563 98.7003C83.8399 100.705 79.6395 101.707 74.9617 101.707C66.9427 101.707 60.4512 99.2253 55.487 94.2612C50.6184 89.2016 48.184 82.6145 48.184 74.5001C48.184 66.3856 50.6184 59.8463 55.487 54.8822C60.4512 49.8226 66.9427 47.2928 74.9617 47.2928C79.6395 47.2928 83.8399 48.3429 87.563 50.4431C91.0558 52.2768 93.7498 54.7494 95.6452 57.861C95.822 58.1513 95.9919 58.4471 96.1548 58.7485L118.35 46.004C117.782 45.0657 117.187 44.1522 116.563 43.2635C112.363 37.2797 106.897 32.4176 100.164 28.6772C92.4317 24.3813 84.0309 22.2334 74.9617 22.2334C59.8784 22.2334 47.3726 27.2453 37.4443 37.269C27.6115 47.1973 22.6951 59.6076 22.6951 74.5001C22.6951 89.3925 27.6115 101.851 37.4443 111.874C47.3726 121.803 59.8784 126.767 74.9617 126.767C84.1263 126.767 92.5272 124.667 100.164 120.466C106.906 116.721 112.378 111.814 116.58 105.746C117.198 104.854 117.788 103.938 118.35 102.996L96.1548 90.1085C95.8856 90.6199 95.5975 91.1161 95.2904 91.5971ZM116.333 82.6667C120.844 82.6667 124.5 79.0104 124.5 74.5001C124.5 69.9897 120.844 66.3334 116.333 66.3334C111.823 66.3334 108.167 69.9897 108.167 74.5001C108.167 79.0104 111.823 82.6667 116.333 82.6667ZM127.767 74.5001C127.767 80.8145 122.648 85.9334 116.333 85.9334C110.019 85.9334 104.9 80.8145 104.9 74.5001C104.9 68.1856 110.019 63.0667 116.333 63.0667C122.648 63.0667 127.767 68.1856 127.767 74.5001Z" fill="#18191F"/>
</svg>
