<svg width="32" height="32" viewBox="0 0 32 32" fill="none" xmlns="http://www.w3.org/2000/svg">
<circle cx="16" cy="16" r="16" fill="#FFBD12"/>
<path fill-rule="evenodd" clip-rule="evenodd" d="M7.71584 24.8469C9.8771 27.0082 12.5995 28.0888 15.8829 28.0888C17.8779 28.0888 19.7067 27.6316 21.3692 26.7172C23.0525 25.7821 24.3721 24.5144 25.328 22.9143L20.4964 20.1088C20.0807 20.8985 19.4573 21.5219 18.626 21.9791C17.8156 22.4155 16.9012 22.6337 15.8829 22.6337C14.1373 22.6337 12.7241 22.0934 11.6435 21.0128C10.5837 19.9114 10.0537 18.4774 10.0537 16.711C10.0537 14.9446 10.5837 13.5211 11.6435 12.4405C12.7241 11.3391 14.1373 10.7884 15.8829 10.7884C16.9012 10.7884 17.8156 11.0169 18.626 11.4741C19.4573 11.9105 20.0807 12.5132 20.4964 13.2821L25.328 10.5078C24.3721 8.92842 23.0525 7.67115 21.3692 6.73599C19.6859 5.80083 17.8571 5.33325 15.8829 5.33325C12.5995 5.33325 9.8771 6.42427 7.71584 8.60631C5.57537 10.7676 4.50513 13.4691 4.50513 16.711C4.50513 19.9529 5.57537 22.6649 7.71584 24.8469ZM24.889 19.1999C26.2636 19.1999 27.3779 18.0856 27.3779 16.711C27.3779 15.3365 26.2636 14.2221 24.889 14.2221C23.5144 14.2221 22.4001 15.3365 22.4001 16.711C22.4001 18.0856 23.5144 19.1999 24.889 19.1999Z" fill="#18191F"/>
<path fill-rule="evenodd" clip-rule="evenodd" d="M18.966 22.6037L18.9632 22.6052C18.0384 23.1032 17.0061 23.3448 15.8829 23.3448C13.9778 23.3448 12.374 22.7489 11.1407 21.5156L11.1358 21.5108L11.1311 21.5058C9.9239 20.2513 9.34263 18.6305 9.34263 16.711C9.34263 14.7919 9.92389 13.1782 11.1358 11.9425C12.3682 10.6864 13.9737 10.0772 15.8829 10.0772C17.008 10.0772 18.0415 10.3302 18.9661 10.8495C19.6811 11.2265 20.2726 11.7196 20.7287 12.3287L24.3195 10.2669C23.4742 9.07959 22.3789 8.11041 21.0238 7.35762C19.4489 6.48267 17.7395 6.04436 15.8829 6.04436C12.7747 6.04436 10.2389 7.06952 8.22107 9.10673C6.22177 11.1254 5.21624 13.6429 5.21624 16.711C5.21624 19.7779 6.2211 22.3065 8.22106 24.3465C10.238 26.3622 12.7738 27.3777 15.8829 27.3777C17.7639 27.3777 19.4734 26.9481 21.025 26.095C22.3821 25.3408 23.4793 24.3616 24.3257 23.1545L20.7345 21.0694C20.2789 21.696 19.6868 22.2073 18.9687 22.6022L18.966 22.6037ZM20.3082 20.4328C19.9008 21.0709 19.3401 21.5864 18.626 21.9791C17.8156 22.4155 16.9012 22.6337 15.8829 22.6337C14.1373 22.6337 12.7241 22.0934 11.6435 21.0128C10.5837 19.9114 10.0537 18.4774 10.0537 16.711C10.0537 14.9446 10.5837 13.5211 11.6435 12.4405C12.7241 11.3391 14.1373 10.7884 15.8829 10.7884C16.9012 10.7884 17.8156 11.0169 18.626 11.4741C19.3864 11.8733 19.9728 12.4116 20.3854 13.0889C20.4239 13.1521 20.4609 13.2165 20.4964 13.2821L25.328 10.5078C25.2044 10.3036 25.0747 10.1047 24.9389 9.91123C24.0247 8.60863 22.8348 7.55022 21.3692 6.73599C19.6859 5.80083 17.8571 5.33325 15.8829 5.33325C12.5995 5.33325 9.8771 6.42427 7.71584 8.60631C5.57537 10.7676 4.50513 13.4691 4.50513 16.711C4.50513 19.9529 5.57537 22.6649 7.71584 24.8469C9.8771 27.0082 12.5995 28.0888 15.8829 28.0888C17.8779 28.0888 19.7067 27.6316 21.3692 26.7172C22.8368 25.9019 24.028 24.8337 24.9427 23.5128C25.0771 23.3188 25.2056 23.1192 25.328 22.9143L20.4964 20.1088C20.4378 20.2201 20.375 20.3281 20.3082 20.4328ZM24.889 18.4888C25.8708 18.4888 26.6668 17.6929 26.6668 16.711C26.6668 15.7292 25.8708 14.9333 24.889 14.9333C23.9071 14.9333 23.1112 15.7292 23.1112 16.711C23.1112 17.6929 23.9071 18.4888 24.889 18.4888ZM27.3779 16.711C27.3779 18.0856 26.2636 19.1999 24.889 19.1999C23.5144 19.1999 22.4001 18.0856 22.4001 16.711C22.4001 15.3365 23.5144 14.2221 24.889 14.2221C26.2636 14.2221 27.3779 15.3365 27.3779 16.711Z" fill="#18191F"/>
<path fill-rule="evenodd" clip-rule="evenodd" d="M7.71584 24.136C9.8771 26.2972 12.5995 27.3779 15.8829 27.3779C17.8779 27.3779 19.7067 26.9207 21.3692 26.0063C23.0525 25.0711 24.3721 23.8035 25.328 22.2033L20.4964 19.3978C20.0807 20.1875 19.4573 20.811 18.626 21.2682C17.8156 21.7046 16.9012 21.9228 15.8829 21.9228C14.1373 21.9228 12.7241 21.3825 11.6435 20.3018C10.5837 19.2004 10.0537 17.7665 10.0537 16.0001C10.0537 14.2337 10.5837 12.8102 11.6435 11.7295C12.7241 10.6281 14.1373 10.0774 15.8829 10.0774C16.9012 10.0774 17.8156 10.306 18.626 10.7632C19.4573 11.1996 20.0807 11.8023 20.4964 12.5712L25.328 9.79687C24.3721 8.21749 23.0525 6.96022 21.3692 6.02505C19.6859 5.08989 17.8571 4.62231 15.8829 4.62231C12.5995 4.62231 9.8771 5.71333 7.71584 7.89537C5.57537 10.0566 4.50513 12.7582 4.50513 16.0001C4.50513 19.242 5.57537 21.9539 7.71584 24.136ZM24.889 18.489C26.2636 18.489 27.3779 17.3747 27.3779 16.0001C27.3779 14.6255 26.2636 13.5112 24.889 13.5112C23.5144 13.5112 22.4001 14.6255 22.4001 16.0001C22.4001 17.3747 23.5144 18.489 24.889 18.489Z" fill="white"/>
<path fill-rule="evenodd" clip-rule="evenodd" d="M18.966 21.8928L18.9632 21.8943C18.0384 22.3922 17.0061 22.6339 15.8829 22.6339C13.9778 22.6339 12.374 22.0379 11.1407 20.8047L11.1358 20.7998L11.1311 20.7949C9.9239 19.5404 9.34263 17.9196 9.34263 16.0001C9.34263 14.0809 9.92389 12.4673 11.1358 11.2316C12.3682 9.9755 13.9737 9.3663 15.8829 9.3663C17.008 9.3663 18.0415 9.61922 18.9661 10.1386C19.6811 10.5155 20.2726 11.0087 20.7287 11.6178L24.3195 9.55596C23.4742 8.36865 22.3789 7.39948 21.0238 6.64668C19.4489 5.77173 17.7395 5.33343 15.8829 5.33343C12.7747 5.33343 10.2389 6.35858 8.22107 8.39579C6.22177 10.4145 5.21624 12.932 5.21624 16.0001C5.21624 19.067 6.2211 21.5955 8.22106 23.6355C10.238 25.6513 12.7738 26.6668 15.8829 26.6668C17.7639 26.6668 19.4734 26.2371 21.025 25.384C22.3821 24.6299 23.4793 23.6507 24.3257 22.4436L20.7345 20.3584C20.2789 20.9851 19.6868 21.4963 18.9687 21.8912L18.966 21.8928ZM20.3082 19.7219C19.9008 20.36 19.3401 20.8754 18.626 21.2682C17.8156 21.7046 16.9012 21.9228 15.8829 21.9228C14.1373 21.9228 12.7241 21.3825 11.6435 20.3018C10.5837 19.2004 10.0537 17.7665 10.0537 16.0001C10.0537 14.2337 10.5837 12.8102 11.6435 11.7295C12.7241 10.6281 14.1373 10.0774 15.8829 10.0774C16.9012 10.0774 17.8156 10.306 18.626 10.7632C19.3864 11.1624 19.9728 11.7006 20.3854 12.378C20.4239 12.4412 20.4609 12.5056 20.4964 12.5712L25.328 9.79687C25.2044 9.59262 25.0747 9.39376 24.9389 9.20029C24.0247 7.89769 22.8348 6.83928 21.3692 6.02505C19.6859 5.08989 17.8571 4.62231 15.8829 4.62231C12.5995 4.62231 9.8771 5.71333 7.71584 7.89537C5.57537 10.0566 4.50513 12.7582 4.50513 16.0001C4.50513 19.242 5.57537 21.9539 7.71584 24.136C9.8771 26.2972 12.5995 27.3779 15.8829 27.3779C17.8779 27.3779 19.7067 26.9207 21.3692 26.0063C22.8368 25.1909 24.028 24.1228 24.9427 22.8019C25.0771 22.6078 25.2056 22.4083 25.328 22.2033L20.4964 19.3978C20.4378 19.5092 20.375 19.6172 20.3082 19.7219ZM24.889 17.7779C25.8708 17.7779 26.6668 16.9819 26.6668 16.0001C26.6668 15.0183 25.8708 14.2223 24.889 14.2223C23.9071 14.2223 23.1112 15.0183 23.1112 16.0001C23.1112 16.9819 23.9071 17.7779 24.889 17.7779ZM27.3779 16.0001C27.3779 17.3747 26.2636 18.489 24.889 18.489C23.5144 18.489 22.4001 17.3747 22.4001 16.0001C22.4001 14.6255 23.5144 13.5112 24.889 13.5112C26.2636 13.5112 27.3779 14.6255 27.3779 16.0001Z" fill="#18191F"/>
</svg>
